<svg xmlns="http://www.w3.org/2000/svg" viewBox="0 0 216 204.87"><defs><style>.cls-1{fill:#231f20;}.cls-2{fill:#39b87e;}</style></defs><g id="Layer_2" data-name="Layer 2"><g id="Layer_1-2" data-name="Layer 1"><path class="cls-1" d="M76.48,115.63l-1,9.85a.6.6,0,0,1-.6.54H48.81a.67.67,0,0,1-.67-.67V78.64a.6.6,0,0,1,.6-.6H74.91a.6.6,0,0,1,.6.54l1,9.81a.62.62,0,0,1-.62.69H61a.59.59,0,0,0-.59.6v5.85a.6.6,0,0,0,.6.6H71.8a.6.6,0,0,1,.6.6v9.82a.6.6,0,0,1-.61.6H61a.59.59,0,0,0-.59.6v6.62a.6.6,0,0,0,.6.61H75.89A.59.59,0,0,1,76.48,115.63Z"/><path class="cls-1" d="M119.88,102a24.31,24.31,0,0,1-3.73,13,23.71,23.71,0,0,1-9.66,8.71c-2.55,1.25-4.75,2.33-11.95,2.33H80.2a.6.6,0,0,1-.59-.6V78.57a.6.6,0,0,1,.6-.6h14c6.22,0,9.19.93,11.47,1.93A24.07,24.07,0,0,1,119.88,102Zm-12.08,0c-.08-12.49-13-13-15.9-12.91a.62.62,0,0,0-.6.61v24.55a.63.63,0,0,0,.62.63h.65c5.1,0,9.66-1.43,11.91-3.74A12.73,12.73,0,0,0,107.8,102Z"/><path class="cls-1" d="M159.1,78.56v28.28c0,8.18-1.87,11.73-4.87,14.8a16.89,16.89,0,0,1-13,5.26c-2.75,0-9-.51-13.37-5.21-4.15-4.56-4.85-8.27-4.85-14.85V78.56a.58.58,0,0,1,.58-.58h11.06a.58.58,0,0,1,.58.58v28.28a14.29,14.29,0,0,0,.76,5.31,5.34,5.34,0,0,0,5.11,2.82c2.31,0,4.35-.84,5.05-2.56a14.91,14.91,0,0,0,.7-5.57V78.56a.58.58,0,0,1,.58-.58h11.06A.58.58,0,0,1,159.1,78.56Z"/><path class="cls-1" d="M182.73,104.51v22.11a.27.27,0,0,1-.27.27h-4.58a.3.3,0,0,1-.23-.11L170,116a.27.27,0,0,0-.5.16l.11,10.44a.27.27,0,0,1-.27.28h-5a.27.27,0,0,1-.28-.27V104.51a.27.27,0,0,1,.28-.27h4.54a.27.27,0,0,1,.23.12L176.81,116a.27.27,0,0,0,.5-.15l-.1-11.28a.27.27,0,0,1,.27-.28h5A.26.26,0,0,1,182.73,104.51Z"/><path class="cls-1" d="M198,122l-.49,4.67a.27.27,0,0,1-.27.25H185a.28.28,0,0,1-.28-.28V104.49a.27.27,0,0,1,.28-.27h5.21a.27.27,0,0,1,.28.27V121.4a.28.28,0,0,0,.27.28h7A.27.27,0,0,1,198,122Z"/><path class="cls-1" d="M216,111.92a8.27,8.27,0,0,1-2.34,6c-1.48,1.27-2.95,2-6.47,2h-1.84a.28.28,0,0,0-.28.28v6.5a.27.27,0,0,1-.27.27h-5.22a.27.27,0,0,1-.27-.27V104.51a.27.27,0,0,1,.27-.27h7c4,0,5.6.63,6.82,1.66A7.8,7.8,0,0,1,216,111.92Zm-5.53.09a2.18,2.18,0,0,0-1.35-2.23,5.81,5.81,0,0,0-2.28-.33h-1.49a.29.29,0,0,0-.28.28v4.62a.28.28,0,0,0,.28.28H207a5.3,5.3,0,0,0,2.14-.33A2.33,2.33,0,0,0,210.47,112Z"/><path class="cls-2" d="M41.24,19.37c1-.81,2.12-1.59,3.19-2.36A93.47,93.47,0,0,1,66.78,5.9,99.45,99.45,0,0,1,111.08.58a101.75,101.75,0,0,1,70.17,40.33,84.24,84.24,0,0,1,11,19.62c2.39,6.21,5.46,15.76,3.73,22.36-3.76-11.44-8.17-22.4-15-32.41a110.23,110.23,0,0,0-27.64-27.57c-1-.68-1.94-1.35-2.92-2l25.2,25.2c-10.93-10.82-22.54-20.36-42.44-28.86C162.45,34,177.68,53.86,181.67,83.37c-3-6.9-5.4-12.35-10.78-24.7C174.3,73.3,176,80.56,177.7,87.82c-5.79-20.16-15.56-37.62-33-49.69C118.08,19.65,90,17.69,62,34.5c-27,16.2-41,41-38.59,72.41,2.53,33.15,20.68,57,51.64,69.59,29.15,11.83,64.13,3.64,87.16-17a148.47,148.47,0,0,0,20.25-22.69,21.46,21.46,0,0,1,3.34-3.9c2.06-1.73,5.86-2.91,6.44.86a7.21,7.21,0,0,1-.52,3.48,44.73,44.73,0,0,1-3.64,7.62,105.85,105.85,0,0,1-21.34,26.19,105.71,105.71,0,0,0,26.62-32.81,10.22,10.22,0,0,1,2.88-3.93c1.35-.94,3.46-1,4.44.32a4.36,4.36,0,0,1,.42,3.28,33.74,33.74,0,0,1-3.66,9.75,107.19,107.19,0,0,1-82,56.53,100.89,100.89,0,0,1-31.82-1.4,107.37,107.37,0,0,1-20.85-6.62c-32.46-14-55.64-44.44-61.43-79.34A99.62,99.62,0,0,1,10.67,56.6,107,107,0,0,1,41.24,19.37Z"/></g></g></svg>